#N canvas 249 37 743 372 10;
#X declare -lib mrpeach;
#X obj -107 25 unpackOSC;
#X obj -547 -51 import mrpeach;
#X obj -541 135 udpsend;
#X msg -390 46 disconnect;
#X obj -541 103 packOSC;
#X msg -560 28 connect 127.0.0.1 9998;
#X obj -107 -7 udpreceive 9999;
#X obj -107 57 routeOSC /test;
#X obj -220 99 routeOSC /many;
#X obj -107 89 routeOSC /x;
#X obj 0 99 routeOSC /y;
#X obj -107 121 print x;
#X obj 0 131 print y;
#X obj -298 205 print arg1;
#X obj -221 196 print arg2;
#X obj -142 205 print arg3;
#X msg -560 60 /test/pd hello 2 2.3;
#X obj -221 164 unpack s f 0;
#X text -564 1 SENDING;
#X text -109 -30 RECEIVING;
#X connect 0 0 7 0;
#X connect 3 0 2 0;
#X connect 4 0 2 0;
#X connect 5 0 2 0;
#X connect 6 0 0 0;
#X connect 7 0 8 0;
#X connect 7 0 9 0;
#X connect 7 0 10 0;
#X connect 8 0 17 0;
#X connect 9 0 11 0;
#X connect 10 0 12 0;
#X connect 16 0 4 0;
#X connect 17 0 13 0;
#X connect 17 1 14 0;
#X connect 17 2 15 0;
