#N canvas 249 37 825 356 10;
#X declare -lib mrpeach;
#X obj -107 25 unpackOSC;
#X obj -547 -51 import mrpeach;
#X obj -492 147 udpsend;
#X msg -410 28 disconnect;
#X obj -492 115 packOSC;
#X msg -560 28 connect 127.0.0.1 9998;
#X obj -107 -7 udpreceive 9999;
#X obj -220 99 routeOSC /many;
#X obj -107 89 routeOSC /x;
#X obj 0 99 routeOSC /y;
#X obj -107 121 print x;
#X obj 0 131 print y;
#X obj -298 205 print arg1;
#X obj -221 196 print arg2;
#X obj -142 205 print arg3;
#X obj -221 164 unpack s f 0;
#X text -564 1 SENDING;
#X text -109 -30 RECEIVING;
#X msg -411 65 /socketio 25 25;
#X msg -551 66 /print/pd hello 2 2.3;
#X obj -107 57 routeOSC /print;
#X obj 102 52 routeOSC /socketio;
#X obj 102 86 unpack 0 0;
#X obj 102 126 nbx 5 14 -1e+37 1e+37 0 0 empty empty empty 0 -8 0 10
-262144 -1 -1 0 256;
#X obj 168 126 nbx 5 14 -1e+37 1e+37 0 0 empty empty empty 0 -8 0 10
-262144 -1 -1 0 256;
#X connect 0 0 20 0;
#X connect 0 0 21 0;
#X connect 3 0 2 0;
#X connect 4 0 2 0;
#X connect 5 0 2 0;
#X connect 6 0 0 0;
#X connect 7 0 15 0;
#X connect 8 0 10 0;
#X connect 9 0 11 0;
#X connect 15 0 12 0;
#X connect 15 1 13 0;
#X connect 15 2 14 0;
#X connect 18 0 4 0;
#X connect 19 0 4 0;
#X connect 20 0 7 0;
#X connect 20 0 8 0;
#X connect 20 0 9 0;
#X connect 21 0 22 0;
#X connect 22 0 23 0;
#X connect 22 1 24 0;
