#N canvas 0 22 820 688 10;
#X declare -lib mrpeach;
#X obj 68 207 loadbang;
#X msg 467 161 bang;
#X obj 467 193 delay 5;
#X obj 63 367 soundfiler;
#X obj 58 609 output~;
#X text 948 761 updated for Pd version 0.37;
#N canvas 0 22 450 300 (subpatch) 0;
#X array sample1 176403 float 0;
#X coords 0 1.02 176403 -1.02 200 130 1 0 0;
#X restore 314 318 graph;
#N canvas 0 22 450 300 (subpatch) 0;
#X array sample2 176403 float 0;
#X coords 0 1.02 176403 -1.02 200 130 1 0 0;
#X restore 316 475 graph;
#N canvas 0 22 450 300 (subpatch) 0;
#X array sample3 176403 float 0;
#X coords 0 1.02 176403 -1.02 200 130 1 0 0;
#X restore 551 326 graph;
#N canvas 0 22 450 300 (subpatch) 0;
#X array sample4 176403 float 0;
#X coords 0 1.02 176403 -1.02 200 130 1 0 0;
#X restore 551 477 graph;
#X obj 64 570 hip~ 5;
#X obj 64 536 *~;
#X obj 104 536 vline~;
#X obj 64 454 vline~;
#X obj 104 509 r cutoff;
#X obj 64 424 r phase;
#X obj 162 429 makefilename sample%d;
#X msg 161 454 set \$1;
#X msg 114 246 read kick.aif sample1;
#X msg 114 307 read hat.aif sample3;
#X obj 64 484 tabread4~ sample1;
#X obj 465 73 unpackOSC;
#X obj 653 619 import mrpeach;
#X obj 105 112 udpsend;
#X obj 105 80 packOSC;
#X obj 464 47 udpreceive 9999;
#X text 62 24 SENDING;
#X text 462 24 RECEIVING;
#X msg 174 75 /pitft/button 1 kick.aif;
#X msg 66 51 connect 10.0.1.11 9998;
#X msg 174 101 /pitft/button 2 snare.aif;
#X msg 174 125 /pitft/button 3 hat.aif;
#X msg 175 151 /pitft/button 4 clave.aif;
#X msg 114 276 read clave.aif sample4;
#X msg 115 335 read snare.aif sample2;
#X obj 467 107 routeOSC /pitft/sample;
#X msg 533 226 \; phase 1 \, 4.41e+08 1e+07 \; cutoff 1;
#X msg 449 236 \; cutoff 0 5;
#X obj 162 400 r samplename;
#X obj 532 160 s samplename;
#X connect 0 0 18 0;
#X connect 0 0 33 0;
#X connect 0 0 19 0;
#X connect 0 0 34 0;
#X connect 1 0 2 0;
#X connect 1 0 37 0;
#X connect 2 0 36 0;
#X connect 10 0 4 0;
#X connect 10 0 4 1;
#X connect 11 0 10 0;
#X connect 12 0 11 1;
#X connect 13 0 20 0;
#X connect 14 0 12 0;
#X connect 15 0 13 0;
#X connect 16 0 17 0;
#X connect 17 0 20 0;
#X connect 18 0 3 0;
#X connect 19 0 3 0;
#X connect 20 0 11 0;
#X connect 21 0 35 0;
#X connect 23 0 28 0;
#X connect 23 0 30 0;
#X connect 23 0 31 0;
#X connect 23 0 32 0;
#X connect 24 0 23 0;
#X connect 25 0 21 0;
#X connect 28 0 24 0;
#X connect 29 0 23 0;
#X connect 30 0 24 0;
#X connect 31 0 24 0;
#X connect 32 0 24 0;
#X connect 33 0 3 0;
#X connect 34 0 3 0;
#X connect 35 0 1 0;
#X connect 35 0 39 0;
#X connect 38 0 16 0;
