#N canvas 473 204 460 306 10;
#X declare -lib mrpeach;
#X obj 91 170 osc~ 440;
#X obj 91 229 dac~;
#X msg -194 178 \; pd dsp 1;
#X msg -90 178 \; pd dsp 0;
#X text -179 215 ON;
#X text -70 215 OFF;
#X obj 91 47 unpackOSC;
#X obj 91 15 udpreceive 9999;
#X text 89 -8 RECEIVING;
#X obj 91 141 mtof;
#X obj 91 79 routeOSC /pitft/sine;
#X obj 91 109 unpack 0 0;
#X obj 154 140 / 128;
#X obj -193 244 import mrpeach;
#X obj -109 85 udpsend;
#X obj -110 52 packOSC;
#X obj -194 146 loadbang;
#X msg -48 18 /pitft connect;
#X msg -200 18 connect 10.0.1.11 9998;
#X text -95 -7 CONNECT;
#X obj 91 199 *~ 0.05;
#X obj 154 170 / 0.5;
#X connect 0 0 20 0;
#X connect 6 0 10 0;
#X connect 7 0 6 0;
#X connect 9 0 0 0;
#X connect 10 0 11 0;
#X connect 11 0 9 0;
#X connect 11 1 12 0;
#X connect 12 0 21 0;
#X connect 15 0 14 0;
#X connect 16 0 2 0;
#X connect 17 0 15 0;
#X connect 18 0 14 0;
#X connect 20 0 1 0;
#X connect 21 0 20 1;
